<?xml version="1.0" encoding="UTF-8" standalone="no"?>
<svg
   xmlns:dc="http://purl.org/dc/elements/1.1/"
   xmlns:cc="http://creativecommons.org/ns#"
   xmlns:rdf="http://www.w3.org/1999/02/22-rdf-syntax-ns#"
   xmlns:svg="http://www.w3.org/2000/svg"
   xmlns="http://www.w3.org/2000/svg"
   xmlns:sodipodi="http://sodipodi.sourceforge.net/DTD/sodipodi-0.dtd"
   xmlns:inkscape="http://www.inkscape.org/namespaces/inkscape"
   version="1.1"
   width="24"
   height="24"
   viewBox="0 0 24 24"
   id="svg4"
   sodipodi:docname="study.svg"
   inkscape:version="0.92.2 (5c3e80d, 2017-08-06)">
  <metadata
     id="metadata10">
    <rdf:RDF>
      <cc:Work
         rdf:about="">
        <dc:format>image/svg+xml</dc:format>
        <dc:type
           rdf:resource="http://purl.org/dc/dcmitype/StillImage" />
      </cc:Work>
    </rdf:RDF>
  </metadata>
  <defs
     id="defs8" />
  <sodipodi:namedview
     pagecolor="#ffffff"
     bordercolor="#666666"
     borderopacity="1"
     objecttolerance="10"
     gridtolerance="10"
     guidetolerance="10"
     inkscape:pageopacity="0"
     inkscape:pageshadow="2"
     inkscape:window-width="640"
     inkscape:window-height="480"
     id="namedview6"
     showgrid="false"
     inkscape:zoom="9.8333333"
     inkscape:cx="12"
     inkscape:cy="12"
     inkscape:window-x="534"
     inkscape:window-y="156"
     inkscape:window-maximized="0"
     inkscape:current-layer="svg4" />
  <path
     d="M 11.863316,8.4399519 A 2.7623488,2.7623488 0 0 0 14.625665,5.6776031 2.7623488,2.7623488 0 0 0 11.863316,2.9152543 2.7623488,2.7623488 0 0 0 9.1009689,5.6776031 2.7623488,2.7623488 0 0 0 11.863316,8.4399519 m 0,3.2595711 C 9.6902694,9.6830084 6.7990117,8.4399519 3.5762714,8.4399519 V 18.568563 c 3.2227403,0 6.113998,1.243057 8.2870446,3.259572 2.173048,-2.016515 5.064306,-3.259572 8.287047,-3.259572 V 8.4399519 c -3.222741,0 -6.113999,1.2430565 -8.287047,3.2595711 z"
     id="path2"
     inkscape:connector-curvature="0"
     style="stroke-width:0.92078292" />
</svg>
